<svg width="25" height="25" viewBox="0 0 25 25" fill="none" xmlns="http://www.w3.org/2000/svg">
<g clip-path="url(#clip0_235_70)">
<path d="M2.36719 22.4653H22.6836V24.0474H2.36719V22.4653Z" fill="#BBBCBE"/>
<path d="M5.27148 4.51953H7.90469V9.07773H5.27148V4.51953Z" fill="#633D19"/>
<path d="M2.36719 21.6738H22.6836V23.2574H2.36719V21.6738Z" fill="#F0CA93"/>
<path d="M3.73478 10.8901L2.50587 11.255L1.48126 12.1011L0.465637 13.3159H3.3172L3.73478 10.8901ZM21.2449 10.8901L22.4715 11.255L23.4949 12.1011L24.5141 13.3159H21.6629L21.2449 10.8901Z" fill="#992C3E"/>
<path d="M15.6473 21.9917C15.8711 21.9917 16.0539 22.203 16.0539 22.4628C16.0539 22.7261 15.8711 22.9354 15.6473 22.9354H9.27734C9.05273 22.9354 8.8707 22.7261 8.8707 22.4628C8.8707 22.203 9.05234 21.9917 9.27734 21.9917H15.6473Z" fill="#BBBCBE"/>
<path d="M16.0574 22.9365C16.3133 22.9365 16.5223 23.1498 16.5223 23.4115C16.5223 23.6713 16.3133 23.8842 16.0574 23.8842H8.79727C8.54219 23.8842 8.33438 23.6713 8.33438 23.4115C8.33438 23.1498 8.54219 22.9365 8.79727 22.9365H16.0574Z" fill="#999999"/>
<path d="M16.5145 23.8823C16.8 23.8823 17.0312 24.0956 17.0312 24.3554C17.0312 24.6151 16.8 24.8284 16.5145 24.8284H8.42031C8.13555 24.8284 7.9043 24.6151 7.9043 24.3554C7.9043 24.0956 8.13555 23.8823 8.42031 23.8823H16.5145Z" fill="#7C7D7E"/>
<path d="M2.91602 11.5423L12.5184 3.92041L22.1363 11.5423V21.9372H2.91758L2.91602 11.5423Z" fill="#F45157"/>
<path d="M6.42812 21.9372H2.91602V11.2966L12.2723 3.92041L12.7281 4.17588L6.42734 11.4208L6.42812 21.9372Z" fill="#F45157"/>
<path d="M12.7844 3.68375C12.9367 3.92906 12.8535 4.27945 12.6043 4.465L0.799603 13.2021C0.549603 13.3884 0.22265 13.3384 0.0714783 13.0927C-0.0789123 12.8455 0.00233767 12.4947 0.253119 12.3115L12.0578 3.57281C12.3078 3.38883 12.6348 3.43883 12.7851 3.68531" fill="#DF394C"/>
<path d="M12.2097 3.68367C12.0594 3.92898 12.1418 4.27937 12.3918 4.46492L24.1965 13.2024C24.4484 13.3887 24.7734 13.3387 24.9246 13.093C25.0762 12.8458 24.9945 12.495 24.7433 12.3118L12.9387 3.57312C12.6867 3.38874 12.3605 3.43874 12.2101 3.68523" fill="#DF394C"/>
<path d="M14.5887 22.0678V18.5287C14.5887 17.2729 13.6645 16.2588 12.5254 16.2588C11.3844 16.2588 10.4617 17.2729 10.4617 18.5287V22.0678H14.5887Z" fill="#4E6B78"/>
<path d="M13.1902 16.3826C12.9782 16.3023 12.7533 16.261 12.5266 16.2607C11.3855 16.2607 10.4629 17.2748 10.4629 18.5307V22.0697H11.7895V18.5307C11.7895 17.5311 12.375 16.6854 13.1902 16.3826Z" fill="#405967"/>
<path d="M8.58046 4.34434C8.58046 4.57832 8.35742 4.76777 8.08163 4.76777H5.15468C4.8789 4.76777 4.65585 4.57793 4.65585 4.34434C4.65585 4.11035 4.8789 3.9209 5.15468 3.9209H8.08163C8.35742 3.9209 8.58046 4.11035 8.58046 4.34434Z" fill="#DF394C"/>
<path d="M8.61602 18.0193C8.61602 18.5045 8.19883 18.8986 7.6836 18.8986H5.15235C4.63751 18.8986 4.21915 18.5041 4.21915 18.0193V14.4998C4.21915 14.0143 4.63751 13.6205 5.15235 13.6205H7.6836C8.19844 13.6205 8.61602 14.015 8.61602 14.4998V18.0193ZM20.7645 17.8494C20.7645 18.335 20.3473 18.7291 19.8313 18.7291H17.3004C16.7844 18.7291 16.3676 18.3346 16.3676 17.8494V14.3299C16.3676 13.8424 16.784 13.4502 17.3004 13.4502H19.8313C20.3469 13.4502 20.7645 13.8408 20.7645 14.3299V17.8494Z" fill="white"/>
</g>
<defs>
<clipPath id="clip0_235_70">
<rect width="25" height="25" fill="white"/>
</clipPath>
</defs>
</svg>
