<svg width="30" height="30" viewBox="0 0 30 30" fill="none" xmlns="http://www.w3.org/2000/svg">
<path d="M22.1787 13.9038C22.0487 13.8419 21.9174 13.7828 21.785 13.7262C21.5537 9.45875 19.2225 7.01625 15.3075 6.99125H15.255C12.9125 6.99125 10.9662 7.99125 9.76747 9.81L11.92 11.2863C12.815 9.9275 14.22 9.6375 15.2562 9.6375H15.2912C16.58 9.64625 17.5537 10.0213 18.1825 10.7525C18.6412 11.2838 18.9475 12.02 19.0987 12.9475C17.876 12.749 16.6349 12.689 15.3987 12.7688C11.6775 12.9838 9.28372 15.1538 9.44497 18.17C9.52622 19.7 10.2887 21.0162 11.5912 21.8762C12.6912 22.6038 14.11 22.9587 15.585 22.8787C17.5312 22.7712 19.0575 22.0288 20.1225 20.6713C20.9325 19.64 21.4437 18.3037 21.67 16.62C22.5975 17.18 23.285 17.9163 23.665 18.8013C24.3112 20.3075 24.3487 22.7812 22.33 24.7975C20.5612 26.565 18.435 27.3288 15.2225 27.3525C11.6587 27.3275 8.96247 26.1838 7.20997 23.9563C5.56872 21.8688 4.72122 18.8563 4.68997 15C4.72122 11.1438 5.56872 8.13 7.20997 6.04375C8.96247 3.81625 11.6575 2.67375 15.2225 2.6475C18.8112 2.6725 21.5537 3.8225 23.3737 6.06C24.2662 7.15875 24.9387 8.53875 25.3825 10.1475L27.905 9.475C27.3675 7.49375 26.5212 5.7875 25.3712 4.37125C23.0375 1.5 19.625 0.03 15.2312 0H15.2137C10.825 0.03 7.45372 1.50625 5.18747 4.3875C3.16997 6.95 2.12997 10.5187 2.09497 14.99V15.01C2.12997 19.4825 3.16997 23.0487 5.18622 25.6125C7.45247 28.4937 10.8262 29.97 15.2137 30H15.2312C19.1312 29.9725 21.88 28.9513 24.1437 26.6887C27.1075 23.7288 27.0187 20.0187 26.0412 17.7412C25.3412 16.1075 24.005 14.7812 22.1787 13.9038ZM15.445 20.235C13.8137 20.3275 12.12 19.595 12.035 18.0275C11.9725 16.865 12.8625 15.5662 15.545 15.4125C15.8525 15.3938 16.1537 15.3862 16.45 15.3862C17.425 15.3862 18.335 15.48 19.1637 15.6613C18.855 19.5212 17.0425 20.1475 15.445 20.235Z" fill="black"/>
</svg>
